<svg xmlns="http://www.w3.org/2000/svg" width="23.5" height="15.738" viewBox="0 0 23.5 15.738"><defs><style>.a{opacity:0.6;}.b{fill:#00aec6;}</style></defs><g class="a" transform="translate(-36)"><path class="b" d="M-2305.5-87.666v.229l-.209.355a16.55,16.55,0,0,1-4.075,4.7,11.963,11.963,0,0,1-10.048,2.42,12.2,12.2,0,0,1-7.336-4.524A14.333,14.333,0,0,1-2329-87.437v-.229a17.272,17.272,0,0,1,4.424-5.154,11.889,11.889,0,0,1,6.715-2.6,11.155,11.155,0,0,1,4.74.754,14.349,14.349,0,0,1,5.937,4.519A19.752,19.752,0,0,1-2305.5-87.666Zm-11.752,4.946a4.707,4.707,0,0,0,4.884-4.853,4.738,4.738,0,0,0-4.833-4.866,4.757,4.757,0,0,0-4.894,4.8A4.729,4.729,0,0,0-2317.252-82.72Z" transform="translate(2365 95.444)"/><path class="b" d="M-2134.832,16.347a2.467,2.467,0,0,1-2.454-2.445,2.494,2.494,0,0,1,2.5-2.465,2.492,2.492,0,0,1,2.427,2.461A2.464,2.464,0,0,1-2134.832,16.347Z" transform="translate(2182.593 -6.026)"/></g></svg>