<svg xmlns="http://www.w3.org/2000/svg" width="52.174" height="66.174" viewBox="0 0 52.174 66.174"><defs><style>.a{fill:#28bacf;stroke:#28bacf;stroke-width:0.3px;}</style></defs><g transform="translate(0.15 0.148)"><path class="a" d="M1268.963,1417.182c-.794,0-1.427,0-2.06,0a1.274,1.274,0,0,1-1.454-1.411c.005-4.344-.087-8.692.06-13.032.1-3.061,2.97-5.519,6.189-5.629.508-.017,1.017,0,1.684,0a9.66,9.66,0,0,0-4.741-7.748,9.531,9.531,0,0,0-5.272-1.43c-2.879.042-5.778-.085-8.631.213-4.84.506-8.644,5.525-8.031,10.5,1.975,0,3.98-.012,5.984,0a8.521,8.521,0,0,1,8.306,6.455,4.744,4.744,0,0,1,.182,1.14c.034,4.516.164,9.036,0,13.545a5.2,5.2,0,0,1-1.658,3.323,7.3,7.3,0,0,0-2.6,6.359c.178,3.82.055,7.655.043,11.483-.009,3.063-1.665,4.722-4.7,4.726q-5.872.009-11.743,0a4.184,4.184,0,0,1-4.467-4.415c-.012-1.764-.026-3.528.022-5.291.008-.3.323-.6.5-.893.232.292.652.575.664.876.068,1.675.021,3.354.043,5.032.03,2.3,1.113,3.408,3.416,3.423q5.872.038,11.743,0c2.107-.012,3.233-1.178,3.238-3.317.012-4.388.037-8.776-.012-13.163a5.553,5.553,0,0,1,2.033-4.662,6.16,6.16,0,0,0,2.378-5.517c-.151-3.435-.031-6.881-.042-10.322a7.326,7.326,0,0,0-7.227-7.535q-6.707-.16-13.42.01a7.317,7.317,0,0,0-7.358,7.665c-.019,3.656.014,7.313-.016,10.969a4.171,4.171,0,0,0,1.875,3.864,6.818,6.818,0,0,1,3.387,6.986c-.1.892.045,1.811-.04,2.706a4.282,4.282,0,0,1-.546,1.238c-.218-.391-.6-.772-.625-1.175-.08-1.372-.057-2.752-.028-4.128a4.105,4.105,0,0,0-1.595-3.493c-.637-.51-1.255-1.044-1.878-1.57a4.911,4.911,0,0,1-1.75-3.986c.012-3.828,0-7.657.015-11.485a8.47,8.47,0,0,1,8.845-8.85c1.838,0,3.677,0,5.32,0a31.919,31.919,0,0,1,1.282-5.236,10.4,10.4,0,0,1,9.981-6.654c2.408-.056,4.818-.017,7.226-.012a10.872,10.872,0,0,1,11.119,9.729c.023.164.072.325.144.642.466,0,.924-.005,1.382,0a6.348,6.348,0,0,1,6.539,6.634q.016,5.548.02,11.1c0,2.162-.174,2.339-2.349,2.359-.334,0-.668.033-1.16.059,0,.518,0,.977,0,1.437,0,4.044-.172,8.1.042,12.128a20.271,20.271,0,0,1-3.975,13.543c-.4.54-.733,1.124-1.168,1.8-2.75-4.126-5.36-8.084-5.151-13.271.188-4.681.042-9.376.043-14.065Zm1.236.076c0,.589,0,1.012,0,1.435,0,5.026.029,10.052-.006,15.078-.027,3.8,1.7,6.882,3.87,9.944,2.145-3.1,3.891-6.163,3.835-9.994-.074-5.025-.017-10.052-.017-15.078,0-.454,0-.909,0-1.386Zm11.263-7.914c0-1.876,0-3.545,0-5.213a8.734,8.734,0,0,0-.055-1.157,5.1,5.1,0,0,0-5.2-4.567c-1.462-.017-2.924-.011-4.386.005a4.837,4.837,0,0,0-4.982,4.15,61.333,61.333,0,0,0-.052,6.788,11.81,11.81,0,0,1,1.806.029c.256.041.463.394.693.606a3.167,3.167,0,0,1-.69.575c-.216.1-.53-.042-.76.039-.41.144-1.1.336-1.127.576-.12.949.7.632,1.175.635,4.214.02,8.428.011,12.642,0a7.5,7.5,0,0,0,.821-.085c.281-.861.019-1.169-.824-1.159-2.666.034-5.333.042-8-.014a4.022,4.022,0,0,1-1.346-.582,4.981,4.981,0,0,1,1.342-.6,20.042,20.042,0,0,1,2.448-.031Zm-14.761,6.516h14.654v-2.706H1266.7Z" transform="translate(-1230.807 -1386.72)"/><path class="a" d="M1263.107,1455.881c2.1,0,4.209-.013,6.313,0a2.589,2.589,0,0,1,2.847,2.776q.065,3.541.005,7.085a2.567,2.567,0,0,1-2.755,2.735q-6.377.041-12.754.011a2.594,2.594,0,0,1-2.83-2.917c-.015-2.319-.02-4.638,0-6.957a2.516,2.516,0,0,1,2.731-2.723c2.147-.024,4.294-.006,6.441-.006Zm.059,1.253c-2.019,0-4.039-.013-6.058,0-1.529.013-1.961.407-1.982,1.881-.03,2.148-.024,4.3,0,6.445.016,1.3.511,1.77,1.811,1.773q6.123.015,12.245,0c1.368,0,1.817-.475,1.824-1.88q.015-3.158,0-6.316c-.007-1.5-.42-1.9-1.912-1.908Q1266.131,1457.127,1263.166,1457.135Z" transform="translate(-1247.953 -1438.025)"/><path class="a" d="M1281.32,1581.769a3.03,3.03,0,1,1-.085-6.059,3.03,3.03,0,1,1,.085,6.059Zm0-1.268a1.774,1.774,0,0,0,1.787-1.8,1.864,1.864,0,0,0-1.859-1.756,1.829,1.829,0,0,0-1.707,1.759A1.758,1.758,0,0,0,1281.32,1580.5Z" transform="translate(-1265.999 -1526.925)"/><path class="a" d="M1274.665,1548.883c1.419,0,2.839-.035,4.256.027.337.015.66.355.989.546-.34.234-.676.664-1.02.67-2.837.054-5.675.049-8.512,0-.336-.005-.665-.375-1-.575.343-.224.677-.622,1.03-.64C1271.825,1548.838,1273.246,1548.882,1274.665,1548.883Z" transform="translate(-1259.423 -1507.013)"/><path class="a" d="M1274.518,1536.445c-1.37,0-2.742.045-4.109-.028-.362-.019-.706-.4-1.058-.61.324-.211.646-.6.974-.6q4.366-.07,8.733,0c.282,0,.559.373.839.573-.295.222-.581.621-.885.635C1277.516,1536.48,1276.016,1536.444,1274.518,1536.445Z" transform="translate(-1259.401 -1496.85)"/><path class="a" d="M1274.684,1562.768c1.412,0,2.827-.037,4.236.026.329.014.643.364.964.559-.321.2-.64.572-.965.578q-4.3.075-8.6.014c-.325,0-.645-.382-.967-.587.323-.2.639-.547.97-.562C1271.772,1562.733,1273.229,1562.768,1274.684,1562.768Z" transform="translate(-1259.401 -1517.316)"/><path class="a" d="M1274.62,1522.834c-1.376,0-2.753.043-4.125-.027-.37-.019-.723-.375-1.083-.577.374-.192.745-.543,1.122-.549q4.19-.07,8.382,0c.34.005.676.339,1.014.521-.351.211-.694.585-1.055.6C1277.459,1522.875,1276.038,1522.834,1274.62,1522.834Z" transform="translate(-1259.446 -1486.818)"/><path class="a" d="M1389.286,1641.39l-.121-.115c.035-.013.073-.041.1-.035a1.532,1.532,0,0,1,.2.072C1389.41,1641.339,1389.349,1641.365,1389.286,1641.39Z" transform="translate(-1348.287 -1575.539)"/></g></svg>