<svg xmlns="http://www.w3.org/2000/svg" width="47.061" height="66.682" viewBox="0 0 47.061 66.682"><defs><style>.a{fill:#a870af;}</style></defs><path class="a" d="M1509.924,1247.721a19.926,19.926,0,0,0,2.849,10.331,20.679,20.679,0,0,0,18.359,10.486,19.949,19.949,0,0,0,13.285-4.759,20.7,20.7,0,0,0,7.712-15.073,18.659,18.659,0,0,0-2.083-9.264c-2.311-4.934-5.511-9.314-8.59-13.772-3.652-5.289-7.346-10.55-10.07-16.409-.079-.172-.118-.441-.333-.448-.269-.014-.287.294-.384.48-.685,1.308-1.318,2.645-2.036,3.931-2.906,5.218-6.415,10.038-9.786,14.951a76.846,76.846,0,0,0-6.9,11.432,19.482,19.482,0,0,0-2.024,8.114m44.641-.108A23.534,23.534,0,0,1,1509.9,1257.8a21.079,21.079,0,0,1-.2-19.09,97.731,97.731,0,0,1,8.418-13.7,140.436,140.436,0,0,0,9.285-14.56c.763-1.463,1.505-2.939,2.121-4.469.129-.319.265-.638.412-.949a1.166,1.166,0,0,1,1.089-.753,1.185,1.185,0,0,1,1.139.792c.162.359.305.728.459,1.09a82.584,82.584,0,0,0,7.942,13.976c3.433,5.078,7.135,9.976,10.145,15.334a29.1,29.1,0,0,1,3.6,9.325,13.24,13.24,0,0,1,.255,2.82" transform="translate(-1507.514 -1204.276)"/><path class="a" d="M1513.45,1218.694a2.866,2.866,0,0,0,2.871,2.913,2.985,2.985,0,0,0,2.856-2.824,2.859,2.859,0,0,0-2.874-2.907,2.769,2.769,0,0,0-2.853,2.817m-2.441-.118a5.295,5.295,0,0,1,10.586.283,5.391,5.391,0,0,1-5.486,5.164,5.322,5.322,0,0,1-5.1-5.447" transform="translate(-1498.497 -1180.633)"/><path class="a" d="M1519.465,1224.482a2.816,2.816,0,0,0,2.871-2.817,2.862,2.862,0,1,0-5.723-.011,2.786,2.786,0,0,0,2.852,2.828m-5.272-2.806a5.279,5.279,0,1,1,5.276,5.282,5.321,5.321,0,0,1-5.276-5.282" transform="translate(-1490.256 -1173.117)"/><path class="a" d="M1513.016,1234.1a1.205,1.205,0,0,1-1.025-1.72,3.089,3.089,0,0,1,.406-.613q6.761-8.869,13.532-17.735c.383-.5.813-.878,1.494-.684a1.17,1.17,0,0,1,.584,1.9c-.714,1-1.473,1.975-2.219,2.953q-5.741,7.51-11.482,15.022a1.7,1.7,0,0,1-1.29.878" transform="translate(-1496.232 -1180.973)"/></svg>