<svg width="52.174" height="66.174" xmlns="http://www.w3.org/2000/svg">

 <g>
  <title>Layer 1</title>
  <g id="svg_1">
   <path id="svg_2" stroke-width="0.3px" stroke="#28bacf" fill="#28bacf" d="m38.30599,30.61003c-0.794,0 -1.427,0 -2.06,0a1.274,1.274 0 0 1 -1.454,-1.411c0.005,-4.344 -0.087,-8.692 0.06,-13.032c0.1,-3.061 2.97,-5.519 6.189,-5.629c0.508,-0.017 1.017,0 1.684,0a9.66,9.66 0 0 0 -4.741,-7.748a9.531,9.531 0 0 0 -5.272,-1.43c-2.879,0.042 -5.778,-0.085 -8.631,0.213c-4.84,0.506 -8.644,5.525 -8.031,10.5c1.975,0 3.98,-0.012 5.984,0a8.521,8.521 0 0 1 8.306,6.455a4.744,4.744 0 0 1 0.182,1.14c0.034,4.516 0.164,9.036 0,13.545a5.2,5.2 0 0 1 -1.658,3.323a7.3,7.3 0 0 0 -2.6,6.359c0.178,3.82 0.055,7.655 0.043,11.483c-0.009,3.063 -1.665,4.722 -4.7,4.726q-5.872,0.009 -11.743,0a4.184,4.184 0 0 1 -4.467,-4.415c-0.012,-1.764 -0.026,-3.528 0.022,-5.291c0.008,-0.3 0.323,-0.6 0.5,-0.893c0.232,0.292 0.652,0.575 0.664,0.876c0.068,1.675 0.021,3.354 0.043,5.032c0.03,2.3 1.113,3.408 3.416,3.423q5.872,0.038 11.743,0c2.107,-0.012 3.233,-1.178 3.238,-3.317c0.012,-4.388 0.037,-8.776 -0.012,-13.163a5.553,5.553 0 0 1 2.033,-4.662a6.16,6.16 0 0 0 2.378,-5.517c-0.151,-3.435 -0.031,-6.881 -0.042,-10.322a7.326,7.326 0 0 0 -7.227,-7.535q-6.707,-0.16 -13.42,0.01a7.317,7.317 0 0 0 -7.358,7.665c-0.019,3.656 0.014,7.313 -0.016,10.969a4.171,4.171 0 0 0 1.875,3.864a6.818,6.818 0 0 1 3.387,6.986c-0.1,0.892 0.045,1.811 -0.04,2.706a4.282,4.282 0 0 1 -0.546,1.238c-0.218,-0.391 -0.6,-0.772 -0.625,-1.175c-0.08,-1.372 -0.057,-2.752 -0.028,-4.128a4.105,4.105 0 0 0 -1.595,-3.493c-0.637,-0.51 -1.255,-1.044 -1.878,-1.57a4.911,4.911 0 0 1 -1.75,-3.986c0.012,-3.828 0,-7.657 0.015,-11.485a8.47,8.47 0 0 1 8.845,-8.85c1.838,0 3.677,0 5.32,0a31.919,31.919 0 0 1 1.282,-5.236a10.4,10.4 0 0 1 9.981,-6.654c2.408,-0.056 4.818,-0.017 7.226,-0.012a10.872,10.872 0 0 1 11.119,9.729c0.023,0.164 0.072,0.325 0.144,0.642c0.466,0 0.924,-0.005 1.382,0a6.348,6.348 0 0 1 6.539,6.634q0.016,5.548 0.02,11.1c0,2.162 -0.174,2.339 -2.349,2.359c-0.334,0 -0.668,0.033 -1.16,0.059c0,0.518 0,0.977 0,1.437c0,4.044 -0.172,8.1 0.042,12.128a20.271,20.271 0 0 1 -3.975,13.543c-0.4,0.54 -0.733,1.124 -1.168,1.8c-2.75,-4.126 -5.36,-8.084 -5.151,-13.271c0.188,-4.681 0.042,-9.376 0.043,-14.065l-0.008,-1.654zm1.236,0.076c0,0.589 0,1.012 0,1.435c0,5.026 0.029,10.052 -0.006,15.078c-0.027,3.8 1.7,6.882 3.87,9.944c2.145,-3.1 3.891,-6.163 3.835,-9.994c-0.074,-5.025 -0.017,-10.052 -0.017,-15.078c0,-0.454 0,-0.909 0,-1.386l-7.682,0.001zm11.263,-7.914c0,-1.876 0,-3.545 0,-5.213a8.734,8.734 0 0 0 -0.055,-1.157a5.1,5.1 0 0 0 -5.2,-4.567c-1.462,-0.017 -2.924,-0.011 -4.386,0.005a4.837,4.837 0 0 0 -4.982,4.15a61.333,61.333 0 0 0 -0.052,6.788a11.81,11.81 0 0 1 1.806,0.029c0.256,0.041 0.463,0.394 0.693,0.606a3.167,3.167 0 0 1 -0.69,0.575c-0.216,0.1 -0.53,-0.042 -0.76,0.039c-0.41,0.144 -1.1,0.336 -1.127,0.576c-0.12,0.949 0.7,0.632 1.175,0.635c4.214,0.02 8.428,0.011 12.642,0a7.5,7.5 0 0 0 0.821,-0.085c0.281,-0.861 0.019,-1.169 -0.824,-1.159c-2.666,0.034 -5.333,0.042 -8,-0.014a4.022,4.022 0 0 1 -1.346,-0.582a4.981,4.981 0 0 1 1.342,-0.6a20.042,20.042 0 0 1 2.448,-0.031l6.495,0.005zm-14.761,6.516l14.654,0l0,-2.706l-14.655,0l0.001,2.706z" class="a"/>
   <path id="svg_3" stroke-width="0.3px" stroke="#28bacf" fill="#28bacf" d="m15.304,18.00398c2.1,0 4.209,-0.013 6.313,0a2.589,2.589 0 0 1 2.847,2.776q0.065,3.541 0.005,7.085a2.567,2.567 0 0 1 -2.755,2.735q-6.377,0.041 -12.754,0.011a2.594,2.594 0 0 1 -2.83,-2.917c-0.015,-2.319 -0.02,-4.638 0,-6.957a2.516,2.516 0 0 1 2.731,-2.723c2.147,-0.024 4.294,-0.006 6.441,-0.006l0.002,-0.004zm0.059,1.253c-2.019,0 -4.039,-0.013 -6.058,0c-1.529,0.013 -1.961,0.407 -1.982,1.881c-0.03,2.148 -0.024,4.3 0,6.445c0.016,1.3 0.511,1.77 1.811,1.773q6.123,0.015 12.245,0c1.368,0 1.817,-0.475 1.824,-1.88q0.015,-3.158 0,-6.316c-0.007,-1.5 -0.42,-1.9 -1.912,-1.908q-2.963,-0.002 -5.928,0.006l0,-0.001z" class="a"/>
   <path id="svg_4" stroke-width="0.3px" stroke="#28bacf" fill="#28bacf" d="m15.47098,54.99195a3.03,3.03 0 1 1 -0.085,-6.059a3.03,3.03 0 1 1 0.085,6.059zm0,-1.268a1.774,1.774 0 0 0 1.787,-1.8a1.864,1.864 0 0 0 -1.859,-1.756a1.829,1.829 0 0 0 -1.707,1.759a1.758,1.758 0 0 0 1.779,1.796l0,0.001z" class="a"/>
   <path id="svg_5" stroke-width="0.3px" stroke="#28bacf" fill="#28bacf" d="m15.39203,42.01806c1.419,0 2.839,-0.035 4.256,0.027c0.337,0.015 0.66,0.355 0.989,0.546c-0.34,0.234 -0.676,0.664 -1.02,0.67c-2.837,0.054 -5.675,0.049 -8.512,0c-0.336,-0.005 -0.665,-0.375 -1,-0.575c0.343,-0.224 0.677,-0.622 1.03,-0.64c1.417,-0.073 2.838,-0.029 4.257,-0.028z" class="a"/>
   <path id="svg_6" stroke-width="0.3px" stroke="#28bacf" fill="#28bacf" d="m15.267,39.74302c-1.37,0 -2.742,0.045 -4.109,-0.028c-0.362,-0.019 -0.706,-0.4 -1.058,-0.61c0.324,-0.211 0.646,-0.6 0.974,-0.6q4.366,-0.07 8.733,0c0.282,0 0.559,0.373 0.839,0.573c-0.295,0.222 -0.581,0.621 -0.885,0.635c-1.496,0.065 -2.996,0.029 -4.494,0.03z" class="a"/>
   <path id="svg_7" stroke-width="0.3px" stroke="#28bacf" fill="#28bacf" d="m15.433,45.59996c1.412,0 2.827,-0.037 4.236,0.026c0.329,0.014 0.643,0.364 0.964,0.559c-0.321,0.2 -0.64,0.572 -0.965,0.578q-4.3,0.075 -8.6,0.014c-0.325,0 -0.645,-0.382 -0.967,-0.587c0.323,-0.2 0.639,-0.547 0.97,-0.562c1.45,-0.063 2.907,-0.028 4.362,-0.028z" class="a"/>
   <path id="svg_8" stroke-width="0.3px" stroke="#28bacf" fill="#28bacf" d="m15.32396,36.16401c-1.376,0 -2.753,0.043 -4.125,-0.027c-0.37,-0.019 -0.723,-0.375 -1.083,-0.577c0.374,-0.192 0.745,-0.543 1.122,-0.549q4.19,-0.07 8.382,0c0.34,0.005 0.676,0.339 1.014,0.521c-0.351,0.211 -0.694,0.585 -1.055,0.6c-1.416,0.073 -2.837,0.032 -4.255,0.032z" class="a"/>
   <path id="svg_9" stroke-width="0.3px" stroke="#28bacf" fill="#28bacf" d="m41.14901,65.99906l-0.121,-0.115c0.035,-0.013 0.073,-0.041 0.1,-0.035a1.532,1.532 0 0 1 0.2,0.072c-0.055,0.027 -0.116,0.053 -0.179,0.078z" class="a"/>
  </g>
  <text xml:space="preserve" text-anchor="start" font-family="Noto Sans JP" font-size="24" id="svg_10" y="56.08701" x="11.08698" stroke-width="0" stroke="#000" fill="#000000">pH</text>
 </g>
</svg>