<svg xmlns="http://www.w3.org/2000/svg" width="35.643" height="72.077" viewBox="0 0 35.643 72.077"><defs><style>.a{fill:#f6a74b;}</style></defs><path class="a" d="M1509.826,1226.757h0c0-5.092.019-10.184-.007-15.272a4.792,4.792,0,0,0-6.036-4.612,4.9,4.9,0,0,0-3.572,4.921q-.005,14.824,0,29.651a9.209,9.209,0,0,1-3.717,7.642,13.952,13.952,0,0,0-4.586,15.6,13.693,13.693,0,0,0,13.12,9.2,13.852,13.852,0,0,0,8.544-24.768,9.212,9.212,0,0,1-3.746-7.678q.011-7.342,0-14.681m2.438-.022c0,4.873.022,9.745-.007,14.614a7.149,7.149,0,0,0,2.832,5.88c5.166,4.271,7.247,9.786,5.8,16.323-1.453,6.563-5.69,10.738-12.22,12.332a16.058,16.058,0,0,1-19.809-13.814,15.774,15.774,0,0,1,6.054-14.822,7.175,7.175,0,0,0,2.869-5.921q-.039-14.79-.008-29.588a7.334,7.334,0,0,1,5.007-7.1,7.237,7.237,0,0,1,9.478,6.827c.026,5.092.007,10.18.007,15.271" transform="translate(-1488.723 -1204.276)"/><path class="a" d="M1500.248,1212.794c-.952,0-1.9.007-2.859,0a1.224,1.224,0,1,1-.007-2.434q2.888-.017,5.775,0a1.224,1.224,0,1,1,0,2.434c-.971.011-1.945,0-2.914,0" transform="translate(-1468.866 -1187.782)"/><path class="a" d="M1500.315,1206.612c.955,0,1.91-.011,2.861,0a1.21,1.21,0,1,1,.008,2.408c-1.948.007-3.9.011-5.846,0a1.208,1.208,0,1,1,0-2.408c.992-.019,1.984,0,2.981,0" transform="translate(-1468.866 -1197.949)"/><path class="a" d="M1500.256,1214.1c.973,0,1.947-.008,2.921,0a1.206,1.206,0,1,1,0,2.4c-1.948.011-3.9.015-5.846,0a1.2,1.2,0,1,1,0-2.4c.973-.011,1.947,0,2.921,0" transform="translate(-1468.862 -1177.591)"/><path class="a" d="M1498.813,1208.485c.517,0,1.033-.015,1.55,0a1.162,1.162,0,0,1,1.163,1.186,1.131,1.131,0,0,1-1.141,1.2c-1.07.033-2.145.03-3.218,0a1.137,1.137,0,0,1-1.134-1.208,1.183,1.183,0,0,1,1.171-1.186h1.609" transform="translate(-1468.865 -1192.858)"/><path class="a" d="M1498.783,1214.646c-.516,0-1.033.015-1.55,0a1.183,1.183,0,0,1-1.2-1.216,1.152,1.152,0,0,1,1.167-1.182c1.056-.026,2.111-.03,3.163,0a1.2,1.2,0,0,1-.03,2.4c-.516.019-1.033,0-1.55,0" transform="translate(-1468.865 -1182.684)"/><path class="a" d="M1501.817,1244.028a4,4,0,0,0-7.995.041,4,4,0,1,0,7.995-.041m-2.791-19.914c0,4.315.007,8.63-.008,12.945,0,.461.1.677.591.818a6.443,6.443,0,1,1-3.542-.007c.479-.134.558-.354.558-.788q-.017-12.823-.008-25.648a5.426,5.426,0,0,1,.026-.773,1.2,1.2,0,0,1,2.364.034,5.531,5.531,0,0,1,.019.658v12.763" transform="translate(-1481.532 -1189.62)"/></svg>