<svg xmlns="http://www.w3.org/2000/svg" width="26.717" height="31.073" viewBox="0 0 26.717 31.073"><defs><style>.a{opacity:0.36;}</style></defs><path class="a" d="M616.055,1653.938a2.012,2.012,0,0,1-1.705,2.008,2.219,2.219,0,0,1-.995-.108c-.118-.036-.256-.132-.356-.068s-.075.221-.1.338q-.637,2.714-1.274,5.427a.193.193,0,0,0,.08.235,9.67,9.67,0,0,1,3.618,5.573,3.754,3.754,0,0,1,.144.784,1.012,1.012,0,0,1-1.33,1.036l-3.483-.965c-1.044-.289-2.089-.576-3.131-.87-.131-.037-.176,0-.219.119q-1.175,3.4-2.358,6.8-.246.708-.492,1.416a.374.374,0,0,1-.442.292.37.37,0,0,1-.258-.483q.853-4.079,1.708-8.157c.027-.128.045-.258.079-.384s-.006-.158-.116-.188c-.973-.266-1.945-.536-2.917-.806-1.314-.364-2.629-.724-3.942-1.094a1.019,1.019,0,0,1-.494-1.68,10.179,10.179,0,0,1,3.189-2.477,9.07,9.07,0,0,1,3.131-.909.306.306,0,0,0,.308-.248q.864-2.732,1.749-5.457c.037-.113.013-.16-.1-.187a5.657,5.657,0,0,1-.579-.165,2,2,0,0,1-.831-3.141,1.89,1.89,0,0,1,2.1-.663q3.781,1.044,7.56,2.095A1.936,1.936,0,0,1,616.055,1653.938Z" transform="translate(73.559 -1753.639) rotate(22)"/></svg>