<svg xmlns="http://www.w3.org/2000/svg" width="48.844" height="32.399" viewBox="0 0 48.844 32.399"><defs><style>.a{fill:#e01e60;}</style></defs><path class="a" d="M1450.256,916.4l-10.892-6.3c0,.348.008.615,0,.881a19.074,19.074,0,0,1-.128,2.772,5.9,5.9,0,0,1-5.948,4.8c-3,.011-6,0-8.994,0q-8.383,0-16.767,0a5.926,5.926,0,0,1-4.125-1.546,5.7,5.7,0,0,1-1.974-4.35q-.025-10.3,0-20.6a5.95,5.95,0,0,1,5.967-5.886c1.64-.022,3.281-.006,4.922-.006q10.454,0,20.907,0a5.963,5.963,0,0,1,3.851,1.275,5.8,5.8,0,0,1,2.288,4.609c.016.825,0,1.65,0,2.574l10.893-6.3Zm-19.27-14.042L1412.694,891.8v21.122Z" transform="translate(-1401.412 -886.161)"/></svg>