<svg xmlns="http://www.w3.org/2000/svg" viewBox="0 0 130.23 184.28" width='30' height='50'><defs><style>.cls-1{fill:#4d4d4d;}.cls-2{fill:#fff;}.cls-3{fill:none;stroke:#fff;stroke-miterlimit:10;stroke-width:3.99px;}.cls-4{fill:red;}</style></defs><title>Accident_op1</title><g id="Layer_2" data-name="Layer 2"><g id="Layer_1-2" data-name="Layer 1"><path class="cls-1" d="M65.1,184.28c-6.16-7.51-11.9-14.2-17.28-21.15-16.27-21-31.24-42.79-41.16-67.63-6-15-8.83-30.3-4.73-46.38C10.44,15.75,42.79-5,77.25,1c32.4,5.63,55.92,36.49,52.68,69.78a83.47,83.47,0,0,1-5,20.8C112,126.54,89.47,155.4,65.1,184.28Z"/><path class="cls-2" d="M65.29,6.76A58.58,58.58,0,0,0,6.48,65c-.33,32,26.08,58.68,58.25,58.93,32.33.25,59-26.2,59.06-58.62A58.58,58.58,0,0,0,65.29,6.76Z"/><path id="Path_2436" data-name="Path 2436" class="cls-2" d="M61.05,55.59c-.18-3.61-.37-7.21-.52-10.82a3.41,3.41,0,0,1,2.83-3.93,3.16,3.16,0,0,1,1,0h1.85A3.34,3.34,0,0,1,69.68,44a2.54,2.54,0,0,1,0,.39c-.17,4.16-.4,8.33-.62,12.48-.15,3-.31,6-.46,9,0,.5,0,1-.1,1.5a3.45,3.45,0,0,1-6.89-.23c-.2-3.85-.37-7.73-.56-11.59Z"/><path id="Path_2437" data-name="Path 2437" class="cls-2" d="M65,85.58a4.92,4.92,0,1,1,0-9.83h.19a4.92,4.92,0,1,1,0,9.83Z"/><line class="cls-3" x1="50.15" y1="74.98" x2="66.15" y2="58.98"/><path class="cls-4" d="M90.47,80.52H41.86c0-.28,0-.56,0-.84,0-8.57,0-17.15,0-25.72a24.3,24.3,0,0,1,48.44-2.78,77.57,77.57,0,0,1,.2,8.5c0,6.65,0,13.3,0,19.95ZM49.29,61.24h0v4c0,1.77,0,3.54,0,5.31a1.25,1.25,0,1,0,2.5,0c0-.21,0-.42,0-.62q0-8.25,0-16.49a11,11,0,0,1,8.43-10.79c.51-.13,1-.17,1.56-.28A1.51,1.51,0,0,0,63,40.82a1.4,1.4,0,0,0-1.58-1.1c-.12,0-.23,0-.35,0C55,40.26,49.55,46,49.31,52.2,49.19,55.21,49.29,58.22,49.29,61.24Z"/><path class="cls-4" d="M66.05,102H38.3a8.49,8.49,0,0,1-8.59-6.54,12,12,0,0,1,.14-6.23,8.53,8.53,0,0,1,8.33-6q20.39,0,40.78,0H93.85c5.36,0,9,3.66,9,9a13.87,13.87,0,0,1-.58,4.17A8.37,8.37,0,0,1,94.15,102Z"/><path class="cls-4" d="M95.5,47.18c-.33-.32-.86-.63-1-1.08s.13-.91.29-1.35c0-.16.3-.28.49-.35q4.36-1.84,8.73-3.65a1.29,1.29,0,0,1,1.71.69,1.24,1.24,0,0,1-.45,1.7,2.58,2.58,0,0,1-.7.36l-7.92,3.32C96.33,46.94,96,47,95.5,47.18Z"/><path class="cls-4" d="M53.67,29.66c-.22-.21-.77-.5-1-.94-1.27-2.89-2.47-5.81-3.66-8.73a1.3,1.3,0,0,1,.77-1.74,1.22,1.22,0,0,1,1.67.56A7.11,7.11,0,0,1,52,19.93c1.07,2.56,2.15,5.12,3.2,7.69C55.62,28.63,55,29.63,53.67,29.66Z"/><path class="cls-4" d="M27.88,40.46a3.3,3.3,0,0,1,.51.15C31.25,41.8,34.12,43,37,44.2a1.31,1.31,0,0,1,.65,2.14,1.24,1.24,0,0,1-1.57.45c-2.92-1.21-5.84-2.42-8.74-3.66a1.25,1.25,0,0,1-.85-1.56A1.42,1.42,0,0,1,27.88,40.46Z"/><path class="cls-4" d="M78.86,29.65a1.47,1.47,0,0,1-1.59-2.06q1.62-3.93,3.26-7.84a6,6,0,0,1,.45-1,1.23,1.23,0,0,1,1.68-.53A1.3,1.3,0,0,1,83.41,20C82.22,22.9,81,25.8,79.79,28.66A3.58,3.58,0,0,1,78.86,29.65Z"/><path class="cls-4" d="M44.9,35.18c-.33.42-.59,1-1,1.13a1.85,1.85,0,0,1-1.49-.4c-1.64-1.48-3.19-3.06-4.77-4.6-.58-.56-1.16-1.1-1.72-1.67a1.31,1.31,0,0,1,0-2.08,1.28,1.28,0,0,1,2,.09q3.23,3.27,6.41,6.59A5,5,0,0,1,44.9,35.18Z"/><path class="cls-4" d="M88.93,36.47c-1.17,0-1.67-.85-1.24-1.69a3,3,0,0,1,.56-.68Q91.37,31,94.5,27.85a1.31,1.31,0,0,1,2-.13c.54.52.5,1.27-.18,1.94C94.18,31.77,92,33.87,89.85,36A3.59,3.59,0,0,1,88.93,36.47Z"/><path class="cls-4" d="M64.88,21V16.58c0-1,.45-1.59,1.24-1.6s1.28.56,1.28,1.56q0,4.5,0,9c0,1-.45,1.58-1.24,1.6s-1.28-.58-1.28-1.65Z"/></g></g></svg>